<svg width="1600" height="1000" viewBox="0 0 1600 1000" fill="none" xmlns="http://www.w3.org/2000/svg">
  <rect width="1600" height="1000" rx="40" fill="#20211E"/>
  <circle cx="800" cy="500" r="300" stroke="#4B4C46" stroke-width="2"/>
  <circle cx="800" cy="500" r="196" stroke="#4B4C46" stroke-width="2"/>
  <path d="M500 500C590 380 690 316 800 306C912 296 1014 360 1100 500" stroke="#7B8067" stroke-width="4"/>
  <path d="M800 200C924 290 992 390 994 500C996 612 932 712 800 800" stroke="#C5603F" stroke-width="4"/>
  <path d="M542 651C680 609 808 616 927 678" stroke="#F4F1E8" stroke-width="3"/>
  <line x1="597" y1="347" x2="998" y2="650" stroke="#4B4C46" stroke-width="2"/>
  <circle cx="597" cy="347" r="16" fill="#C5603F"/>
  <circle cx="994" cy="500" r="12" fill="#F4F1E8"/>
  <circle cx="927" cy="678" r="18" fill="#7B8067"/>
  <circle cx="800" cy="306" r="9" fill="#F4F1E8"/>
  <circle cx="748" cy="624" r="8" fill="#C5603F"/>
  <circle cx="800" cy="500" r="42" fill="#20211E" stroke="#F4F1E8" stroke-width="2"/>
  <circle cx="800" cy="500" r="9" fill="#F4F1E8"/>
  <text x="80" y="110" fill="#F4F1E8" font-family="Arial, sans-serif" font-size="28" letter-spacing="2">DISTRIBUTED LABS</text>
  <text x="80" y="900" fill="#AAA99F" font-family="Arial, sans-serif" font-size="22" letter-spacing="3">SYSTEMS IN MOTION / 2026</text>
</svg>
